<svg version="1.2" xmlns="http://www.w3.org/2000/svg" viewBox="0 0 400 450" width="400" height="450">
	<defs>
		<linearGradient id="g1" x2="1" gradientUnits="userSpaceOnUse" gradientTransform="matrix(45,220,-45,220,80,60)">
			<stop offset="0" stop-color="#023020"/>
			<stop offset="1" stop-color="#01120b"/>
		</linearGradient>
		<linearGradient id="g2" x2="1" gradientUnits="userSpaceOnUse" gradientTransform="matrix(45,140,-45,140,140,140)">
			<stop offset="0" stop-color="#023020"/>
			<stop offset="1" stop-color="#01120b"/>
		</linearGradient>
		<linearGradient id="g3" x2="1" gradientUnits="userSpaceOnUse" gradientTransform="matrix(45,140,-45,140,215,140)">
			<stop offset="0" stop-color="#023020"/>
			<stop offset="1" stop-color="#01120b"/>
		</linearGradient>
		<linearGradient id="g4" x2="1" gradientUnits="userSpaceOnUse" gradientTransform="matrix(45,220,-45,220,275,60)">
			<stop offset="0" stop-color="#023020"/>
			<stop offset="1" stop-color="#01120b"/>
		</linearGradient>
		<linearGradient id="g5" x2="1" gradientUnits="userSpaceOnUse" gradientTransform="matrix(180,120,-180,120,107,120)">
			<stop offset="0" stop-color="#f5f5f5"/>
			<stop offset=".5" stop-color="#e0e0e0"/>
			<stop offset="1" stop-color="#bdbdbd"/>
		</linearGradient>
	</defs>
	<style>
		.s0 { fill: url(#g1) } 
		.s1 { fill: url(#g2) } 
		.s2 { fill: url(#g3) } 
		.s3 { fill: url(#g4) } 
		.s4 { fill: url(#g5) } 
		.s5 { opacity: .95;fill: none;stroke: #102a43;stroke-width: 2.2 } 
		.s6 { fill: #ff6600 } 
	</style>
	<g id="Layer 1">
		<path class="s0" d="m82 60h41c1.1 0 2 0.9 2 2v216c0 1.1-0.9 2-2 2h-41c-1.1 0-2-0.9-2-2v-216c0-1.1 0.9-2 2-2z"/>
		<path class="s1" d="m142 140h41c1.1 0 2 0.9 2 2v136c0 1.1-0.9 2-2 2h-41c-1.1 0-2-0.9-2-2v-136c0-1.1 0.9-2 2-2z"/>
		<path class="s2" d="m217 140h41c1.1 0 2 0.9 2 2v136c0 1.1-0.9 2-2 2h-41c-1.1 0-2-0.9-2-2v-136c0-1.1 0.9-2 2-2z"/>
		<path class="s3" d="m277 60h41c1.1 0 2 0.9 2 2v216c0 1.1-0.9 2-2 2h-41c-1.1 0-2-0.9-2-2v-216c0-1.1 0.9-2 2-2z"/>
		<path class="s4" d="m107 120h180l-90 120z"/>
		<path class="s5" d="m197 240l-90-120h180z"/>
		<path id="Cognetex" class="s6" aria-label="Cognetex"  d="m158 159.8q-4 0-6-2.2-2.1-2.3-2.1-5.9 0-3.1 1.4-5.7 0.8-1.5 2-2.7 1.2-1.2 3.2-1.9 2-0.8 4.6-0.8 0.9 0 1.5 0.2 0.7 0.1 0.7 0.2 0 1.3-0.2 3-0.1 1.6-0.2 1.7-0.1 0.1-1.1 0.4-1 0.3-1.5 0.3v-0.2q0-1.2-0.3-1.7-0.4-0.5-1.2-0.5-1.9 0-3.6 2.1-1.7 2-1.7 5.5 0 1.9 1 3.3 0.5 0.8 1.4 1.3 0.9 0.5 2.2 0.5 2.5 0 5-2.4 0.1 0 0.4 0.4 0.3 0.3 0.7 0.9 0.6 1.1 0.6 1.3 0 0.3-0.8 0.9-0.8 0.7-2.5 1.4-1.8 0.6-3.5 0.6zm19.3-6.4q0 2.5-1.6 4.4-1.5 1.9-4.2 1.9-2.7 0-4.2-1.6-1.5-1.7-1.5-4.3 0-2.7 1.9-4.7 1.9-2.1 5.1-2.1 1.3 0.1 1.4 0.2 0.1 0.1 0.1 0.5 0 0.4-0.1 0.9 0.4 0 1 0.5 0.7 0.5 1.1 0.9 0.4 0.5 0.7 1.4 0.3 0.9 0.3 2zm-4-1.9q-0.6-0.4-1.2-0.4h-0.2q-0.1-0.1-0.1-0.5 0-0.3 0.1-0.7-1.1 0-2.1 1-0.9 1-0.9 2.8 0 2.1 1.4 2.9 0.5 0.4 1.4 0.4 0.9 0 1.7-0.9 0.8-0.8 0.8-2.5 0-1.6-0.9-2.1zm16-2.7v3.5 6.4q0 2.1-0.6 3.8-0.5 1.6-1.3 2.5-0.8 0.9-1.9 1.5-1.7 0.9-3.4 0.9-0.1 0-0.4-0.4-0.2-0.4-0.4-1.1-0.2-0.7-0.2-1.3h0.5q0.5 0 1-0.1 0.5-0.1 1.2-0.5 0.8-0.5 1.3-1.2 0.5-0.7 0.9-2 0.4-1.4 0.4-3.3 0-0.1-0.1-0.1v0.1q-1.2 1.8-3.6 1.8-1.8 0-2.9-1.5-1.1-1.4-1.1-3.2 0-3.2 2.1-5.3 2.1-2.2 6-2.2 0.9 0 0.9 0.2 0.1 0.4 0.1 1v0.4h0.3q0.9 0 1.2 0.1zm-3 1.2l-0.6-0.1q-1.7 0-2.7 1.2-1 1.1-1 2.8 0 0.8 0.5 1.4 0.5 0.6 1.4 0.6 1 0 1.7-0.7 0.6-0.8 0.6-1.2 0-3.1 0.1-4zm9.3 2.5v0.4l0.1 1v2.1q0 2.9-0.2 3-0.3 0.3-1.2 0.5-0.8 0.2-1.4 0.2-0.5 0-0.5-0.1 0.1-1.2 0.1-4v-6.1q0-1.7 0.1-1.8 0.3-0.3 1-0.5 0.8-0.2 1.4-0.2 0.6 0 0.6 0.1-0.1 0.6-0.1 1.3 0 0.6 0.1 0.6h0.1q0.1-0.2 0.4-0.5 0.3-0.3 1.2-0.7 0.8-0.5 1.6-0.5 0.8 0 1.4 0.3 0.6 0.2 0.9 0.7 0.4 0.4 0.6 1.1 0.3 0.8 0.4 1.4 0.1 0.7 0.2 1.8 0.1 1.4 0.1 3.7l-0.1 3.2q0 0.2-0.9 0.4-0.9 0.2-1.4 0.2l-0.9-0.2q0.3-2.4 0.3-4.7 0-2.3-0.3-3.4-0.3-1.2-1.2-1.2-0.9 0-1.5 0.5-0.5 0.5-0.7 1zm15-2.2q0-0.8-0.8-0.8-1.2 0-2 1.2-0.8 1.1-0.8 2.7 0 0.4 0.1 0.4 1 0 2.2-1.1 1.3-1.1 1.3-2.4zm2.4 8.6q-1 0.7-3.6 0.7-2.7 0-4.2-1.6-1.4-1.6-1.4-4.3 0-2.7 1.7-4.6 1.7-2 4.9-2 1.2 0 2.3 0.7 1.1 0.7 1.1 2.4 0 1.6-1.5 3.3-1.5 1.6-4 2.5 0 0.3 0.6 0.6 0.7 0.1 1.3 0.1 2.1 0 3.3-0.7 0 0 0.1 0 0 0 0 0.5 0 1.6-0.6 2.4zm6.8-17.7q-0.1 0.6-0.2 3.4 2.1 0 2.1 0.1 0 0.9-0.3 1.7-0.3 0.7-0.5 0.7h-1.3q0 4 0 6.5 0 2.5 0 3.3 0.2 1.4 1.2 2.3 0 0.3-1.1 0.9-1 0.5-1.9 0.5-0.1 0-0.4-0.2-0.2-0.3-0.5-0.9-0.2-0.6-0.3-1.2 0-0.6 0-4.3 0-3.6 0-6.9h-1.5q-0.1-0.1-0.1-1.1 0-1.1 0.2-1.3 0.6 0 1.5-0.1 0-1.5-0.1-2-0.1-0.4-0.1-0.5 0-0.3 0.9-0.6 1-0.4 1.7-0.4 0.7 0 0.7 0.1zm8.8 9.1q0-0.8-0.8-0.8-1.2 0-2 1.2-0.8 1.1-0.8 2.7 0 0.4 0.1 0.4 1 0 2.2-1.1 1.3-1.1 1.3-2.4zm2.4 8.6q-1 0.7-3.6 0.7-2.7 0-4.2-1.6-1.4-1.6-1.4-4.3 0-2.7 1.7-4.6 1.7-2 4.9-2 1.2 0 2.3 0.7 1.1 0.7 1.1 2.4 0 1.6-1.5 3.3-1.5 1.6-4 2.5 0 0.3 0.6 0.6 0.7 0.1 1.3 0.1 2.1 0 3.3-0.7 0 0 0.1 0 0 0 0 0.5 0 1.6-0.6 2.4zm12.9-1.5q0 0.5-0.9 1.6-1 1-1.5 1-0.8-0.4-3.9-4.5-2.2 3.7-2.7 4.9-0.7 0-1.6-0.6-0.8-0.7-1-1.2 0-0.5 3.4-5.6-2.6-3.7-2.6-4.1 0.2-0.6 0.9-1.3 0.7-0.7 1.3-0.8 0.2 0.6 2.3 3.5 2.6-3.7 3.7-4.4 0.3 0 1.2 0.6 1 0.6 1 0.9-1.8 1.8-4.1 5.3 2.9 3.8 4.5 4.7z"/>
	</g>
</svg>