<svg xmlns="http://www.w3.org/2000/svg" viewBox="0 0 100 100" width="150" height="150">
  <defs>
    <clipPath id="tower-clip">
      <path d="M 13 90 L 88 90 L 88 10 L 76 22 L 76 85 L 67 85 L 67 31 L 55 43 L 55 85 L 46 85 L 46 52 L 34 64 L 34 85 L 25 85 L 25 73 L 13 85 Z" />
    </clipPath>
  </defs>

  <path d="M 13 90 L 88 90 L 88 10 L 76 22 L 76 85 L 67 85 L 67 31 L 55 43 L 55 85 L 46 85 L 46 52 L 34 64 L 34 85 L 25 85 L 25 73 L 13 85 Z" 
        fill="rgba(0,0,0,0.1)" />

  <g clip-path="url(#tower-clip)">
    <rect x="-100" y="0" width="100" height="100" fill="#000000">
      <animate 
        attributeName="x" 
        from="-100" 
        to="100" 
        dur="1.2s" 
        repeatCount="indefinite" />
    </rect>
  </g>
</svg>
